<svg width="393" height="852" viewBox="0 0 393 852" fill="none" xmlns="http://www.w3.org/2000/svg">
<rect width="393" height="852" fill="white"/>
<rect width="393" height="54" fill="white"/>
<path d="M57.6904 23.0627C58.3324 23.0627 58.9411 23.1817 59.5166 23.4197C60.0921 23.6521 60.6012 24.0173 61.0439 24.5154C61.4922 25.0079 61.8436 25.6415 62.0981 26.4163C62.3527 27.1855 62.48 28.1124 62.48 29.197V29.2136C62.48 30.5583 62.2863 31.7094 61.8989 32.6667C61.5116 33.6241 60.9554 34.3601 60.2305 34.8748C59.5111 35.3839 58.6506 35.6384 57.6489 35.6384C56.9129 35.6384 56.2489 35.5056 55.6567 35.24C55.0701 34.9688 54.5832 34.5981 54.1958 34.1277C53.814 33.6518 53.5566 33.1095 53.4238 32.5007L53.4072 32.4094H55.5073L55.5405 32.4924C55.6457 32.7691 55.7951 33.0126 55.9888 33.2229C56.188 33.4332 56.4259 33.5964 56.7026 33.7126C56.9849 33.8233 57.3003 33.8787 57.6489 33.8787C58.2798 33.8787 58.7944 33.6933 59.1929 33.3225C59.5968 32.9462 59.8984 32.4454 60.0977 31.8201C60.3024 31.1892 60.4186 30.4919 60.4463 29.7283C60.4518 29.6453 60.4546 29.565 60.4546 29.4875C60.4546 29.4045 60.4546 29.3243 60.4546 29.2468L60.0811 27.2463C60.0811 26.7926 59.9759 26.3803 59.7656 26.0095C59.5553 25.6388 59.2703 25.3455 58.9106 25.1296C58.5565 24.9138 58.1553 24.8059 57.707 24.8059C57.2754 24.8059 56.8797 24.9111 56.52 25.1213C56.1603 25.3316 55.8726 25.6194 55.6567 25.9846C55.4409 26.3443 55.333 26.7483 55.333 27.1965V27.2131C55.333 27.678 55.4354 28.0903 55.6401 28.45C55.8449 28.8041 56.1243 29.0836 56.4785 29.2883C56.8327 29.4931 57.2367 29.5955 57.6904 29.5955C58.1442 29.5955 58.5509 29.4958 58.9106 29.2966C59.2703 29.0974 59.5553 28.8207 59.7656 28.4666C59.9759 28.1124 60.0811 27.7112 60.0811 27.2629V27.2463H60.5791V29.4543H60.2886C60.1447 29.7698 59.9316 30.0631 59.6494 30.3342C59.3672 30.6054 59.0186 30.824 58.6035 30.99C58.194 31.156 57.7126 31.239 57.1592 31.239C56.3955 31.239 55.7204 31.0675 55.1338 30.7244C54.5472 30.3813 54.0851 29.9109 53.7476 29.3132C53.4155 28.7156 53.2495 28.0404 53.2495 27.2878V27.2712C53.2495 26.4578 53.4377 25.7356 53.814 25.1047C54.1958 24.4683 54.7215 23.9703 55.3911 23.6106C56.0662 23.2454 56.8327 23.0627 57.6904 23.0627ZM66.2485 33.7292C65.8722 33.7292 65.5568 33.6047 65.3022 33.3557C65.0532 33.1012 64.9287 32.7913 64.9287 32.426C64.9287 32.0553 65.0532 31.7454 65.3022 31.4963C65.5568 31.2418 65.8722 31.1145 66.2485 31.1145C66.6304 31.1145 66.9458 31.2418 67.1948 31.4963C67.4438 31.7454 67.5684 32.0553 67.5684 32.426C67.5684 32.7913 67.4438 33.1012 67.1948 33.3557C66.9458 33.6047 66.6304 33.7292 66.2485 33.7292ZM66.2485 27.5701C65.8722 27.5701 65.5568 27.4456 65.3022 27.1965C65.0532 26.942 64.9287 26.6321 64.9287 26.2668C64.9287 25.8961 65.0532 25.5862 65.3022 25.3372C65.5568 25.0826 65.8722 24.9553 66.2485 24.9553C66.6304 24.9553 66.9458 25.0826 67.1948 25.3372C67.4438 25.5862 67.5684 25.8961 67.5684 26.2668C67.5684 26.6321 67.4438 26.942 67.1948 27.1965C66.9458 27.4456 66.6304 27.5701 66.2485 27.5701ZM75.8276 35.3396V33.0403H69.9673V31.2888C70.2827 30.752 70.5981 30.2125 70.9136 29.6702C71.2345 29.1278 71.5583 28.5883 71.8848 28.0515C72.2168 27.5092 72.5461 26.9752 72.8726 26.4495C73.2046 25.9182 73.5339 25.3953 73.8604 24.8806C74.1924 24.3604 74.5244 23.8541 74.8564 23.3616H77.8696V31.2722H79.4883V33.0403H77.8696V35.3396H75.8276ZM71.9595 31.322H75.8608V25.0715H75.7363C75.4928 25.4478 75.241 25.8352 74.981 26.2336C74.7264 26.6321 74.4691 27.0388 74.209 27.4539C73.9489 27.8689 73.6916 28.2867 73.437 28.7073C73.1825 29.1223 72.9307 29.5401 72.6816 29.9607C72.4326 30.3757 72.1919 30.788 71.9595 31.1975V31.322ZM84.4438 35.3396V25.47H84.2944L81.3145 27.5701V25.5613L84.4438 23.3616H86.5771V35.3396H84.4438Z" fill="black"/>
<rect opacity="0.35" x="334" y="23.5" width="24" height="12" rx="3.8" stroke="black"/>
<path opacity="0.4" d="M359.5 27.7812V31.8567C360.305 31.5116 360.828 30.7086 360.828 29.819C360.828 28.9294 360.305 28.1264 359.5 27.7812Z" fill="black"/>
<rect x="335.5" y="25" width="21" height="9" rx="2.5" fill="black"/>
<path fill-rule="evenodd" clip-rule="evenodd" d="M317.771 26.104C320.258 26.1041 322.65 27.0262 324.452 28.6796C324.588 28.8073 324.805 28.8057 324.939 28.676L326.236 27.4126C326.304 27.3468 326.341 27.2577 326.341 27.165C326.34 27.0724 326.302 26.9837 326.233 26.9187C321.502 22.544 314.038 22.544 309.307 26.9187C309.239 26.9837 309.2 27.0723 309.199 27.165C309.199 27.2577 309.236 27.3468 309.304 27.4126L310.602 28.676C310.735 28.8059 310.952 28.8075 311.088 28.6796C312.891 27.0261 315.283 26.104 317.771 26.104ZM317.767 30.3243C319.124 30.3242 320.433 30.8359 321.439 31.76C321.576 31.8912 321.79 31.8883 321.923 31.7536L323.21 30.4343C323.278 30.3651 323.315 30.2712 323.314 30.1737C323.313 30.0761 323.274 29.9831 323.205 29.9153C320.141 27.0244 315.396 27.0244 312.332 29.9153C312.263 29.9831 312.224 30.0762 312.223 30.1738C312.222 30.2714 312.26 30.3652 312.327 30.4343L313.614 31.7536C313.747 31.8883 313.961 31.8912 314.097 31.76C315.103 30.8365 316.411 30.3248 317.767 30.3243ZM320.292 33.1178C320.294 33.2232 320.256 33.3247 320.189 33.3985L318.012 35.8533C317.949 35.9254 317.862 35.966 317.771 35.966C317.68 35.966 317.593 35.9254 317.529 35.8533L315.352 33.3985C315.285 33.3247 315.248 33.2231 315.25 33.1177C315.252 33.0124 315.293 32.9126 315.363 32.842C316.753 31.5281 318.789 31.5281 320.179 32.842C320.249 32.9127 320.29 33.0125 320.292 33.1178Z" fill="black"/>
<path fill-rule="evenodd" clip-rule="evenodd" d="M301.7 24.6821C301.7 24.0491 301.222 23.5359 300.633 23.5359H299.567C298.978 23.5359 298.5 24.0491 298.5 24.6821V34.6161C298.5 35.2491 298.978 35.7623 299.567 35.7623H300.633C301.222 35.7623 301.7 35.2491 301.7 34.6161V24.6821ZM294.266 25.9812H295.333C295.922 25.9812 296.399 26.5067 296.399 27.1549V34.5886C296.399 35.2368 295.922 35.7623 295.333 35.7623H294.266C293.677 35.7623 293.199 35.2368 293.199 34.5886V27.1549C293.199 26.5067 293.677 25.9812 294.266 25.9812ZM289.934 28.6302H288.867C288.278 28.6302 287.801 29.1624 287.801 29.8189V34.5736C287.801 35.2301 288.278 35.7623 288.867 35.7623H289.934C290.523 35.7623 291.001 35.2301 291.001 34.5736V29.8189C291.001 29.1624 290.523 28.6302 289.934 28.6302ZM284.633 31.0755H283.567C282.978 31.0755 282.5 31.6001 282.5 32.2472V34.5906C282.5 35.2377 282.978 35.7623 283.567 35.7623H284.633C285.222 35.7623 285.7 35.2377 285.7 34.5906V32.2472C285.7 31.6001 285.222 31.0755 284.633 31.0755Z" fill="black"/>
<g filter="url(#filter0_d_84_28883)">
<rect x="30" y="310" width="333" height="470" rx="10" fill="#FBFAFA"/>
<rect x="112" y="727" width="168" height="43" rx="10" fill="#008000"/>
<path d="M161.678 750.322H164.363C164.292 751.273 164.028 752.116 163.572 752.852C163.117 753.581 162.482 754.154 161.668 754.57C160.854 754.987 159.868 755.195 158.709 755.195C157.817 755.195 157.013 755.039 156.297 754.727C155.587 754.408 154.979 753.955 154.471 753.369C153.969 752.777 153.585 752.067 153.318 751.24C153.051 750.407 152.918 749.473 152.918 748.438V747.354C152.918 746.318 153.055 745.384 153.328 744.551C153.602 743.717 153.992 743.008 154.5 742.422C155.014 741.829 155.63 741.374 156.346 741.055C157.068 740.736 157.876 740.576 158.768 740.576C159.926 740.576 160.906 740.791 161.707 741.221C162.508 741.644 163.13 742.227 163.572 742.969C164.015 743.711 164.282 744.564 164.373 745.527H161.688C161.635 744.928 161.505 744.421 161.297 744.004C161.095 743.587 160.789 743.271 160.379 743.057C159.975 742.835 159.438 742.725 158.768 742.725C158.247 742.725 157.788 742.822 157.391 743.018C157 743.213 156.674 743.506 156.414 743.896C156.154 744.281 155.958 744.762 155.828 745.342C155.698 745.915 155.633 746.579 155.633 747.334V748.438C155.633 749.16 155.691 749.808 155.809 750.381C155.926 750.954 156.108 751.439 156.355 751.836C156.603 752.233 156.922 752.536 157.312 752.744C157.703 752.952 158.169 753.057 158.709 753.057C159.367 753.057 159.9 752.952 160.311 752.744C160.727 752.536 161.043 752.23 161.258 751.826C161.479 751.423 161.619 750.921 161.678 750.322ZM172.068 752.754V747.881C172.068 747.523 172.007 747.214 171.883 746.953C171.759 746.693 171.57 746.491 171.316 746.348C171.062 746.204 170.74 746.133 170.35 746.133C170.005 746.133 169.702 746.191 169.441 746.309C169.188 746.426 168.992 746.592 168.855 746.807C168.719 747.015 168.65 747.256 168.65 747.529H166.062C166.062 747.093 166.167 746.68 166.375 746.289C166.583 745.892 166.88 745.54 167.264 745.234C167.654 744.922 168.12 744.678 168.66 744.502C169.207 744.326 169.819 744.238 170.496 744.238C171.297 744.238 172.01 744.375 172.635 744.648C173.266 744.915 173.761 745.319 174.119 745.859C174.484 746.4 174.666 747.08 174.666 747.9V752.51C174.666 753.037 174.699 753.49 174.764 753.867C174.835 754.238 174.939 754.561 175.076 754.834V755H172.449C172.326 754.733 172.231 754.395 172.166 753.984C172.101 753.568 172.068 753.158 172.068 752.754ZM172.43 748.564L172.449 750.098H170.818C170.415 750.098 170.06 750.14 169.754 750.225C169.448 750.303 169.197 750.42 169.002 750.576C168.807 750.726 168.66 750.908 168.562 751.123C168.465 751.331 168.416 751.569 168.416 751.836C168.416 752.096 168.475 752.331 168.592 752.539C168.715 752.747 168.891 752.913 169.119 753.037C169.354 753.154 169.627 753.213 169.939 753.213C170.395 753.213 170.792 753.122 171.131 752.939C171.469 752.751 171.733 752.523 171.922 752.256C172.111 751.989 172.212 751.735 172.225 751.494L172.967 752.607C172.876 752.874 172.739 753.158 172.557 753.457C172.374 753.757 172.14 754.036 171.854 754.297C171.567 754.557 171.222 754.772 170.818 754.941C170.415 755.111 169.946 755.195 169.412 755.195C168.729 755.195 168.117 755.059 167.576 754.785C167.036 754.512 166.609 754.137 166.297 753.662C165.984 753.187 165.828 752.646 165.828 752.041C165.828 751.481 165.932 750.986 166.141 750.557C166.349 750.127 166.658 749.766 167.068 749.473C167.479 749.173 167.986 748.949 168.592 748.799C169.204 748.643 169.904 748.564 170.691 748.564H172.43ZM183.328 752.754V740H185.926V755H183.582L183.328 752.754ZM176.541 749.844V749.639C176.541 748.831 176.632 748.099 176.814 747.441C177.003 746.777 177.277 746.208 177.635 745.732C177.993 745.257 178.426 744.889 178.934 744.629C179.448 744.368 180.031 744.238 180.682 744.238C181.313 744.238 181.863 744.365 182.332 744.619C182.807 744.873 183.211 745.234 183.543 745.703C183.882 746.172 184.152 746.729 184.354 747.373C184.555 748.011 184.702 748.714 184.793 749.482V750.039C184.702 750.788 184.555 751.475 184.354 752.1C184.152 752.725 183.882 753.271 183.543 753.74C183.211 754.202 182.807 754.561 182.332 754.814C181.857 755.068 181.3 755.195 180.662 755.195C180.018 755.195 179.438 755.062 178.924 754.795C178.416 754.528 177.983 754.154 177.625 753.672C177.273 753.19 177.003 752.624 176.814 751.973C176.632 751.322 176.541 750.612 176.541 749.844ZM179.129 749.639V749.844C179.129 750.299 179.168 750.726 179.246 751.123C179.324 751.52 179.451 751.872 179.627 752.178C179.803 752.477 180.027 752.712 180.301 752.881C180.581 753.05 180.919 753.135 181.316 753.135C181.824 753.135 182.241 753.024 182.566 752.803C182.898 752.575 183.156 752.266 183.338 751.875C183.52 751.478 183.637 751.032 183.689 750.537V749.004C183.663 748.613 183.595 748.252 183.484 747.92C183.38 747.588 183.23 747.301 183.035 747.061C182.846 746.82 182.612 746.631 182.332 746.494C182.052 746.357 181.72 746.289 181.336 746.289C180.939 746.289 180.6 746.377 180.32 746.553C180.04 746.722 179.812 746.96 179.637 747.266C179.461 747.572 179.331 747.926 179.246 748.33C179.168 748.734 179.129 749.17 179.129 749.639ZM194.08 752.754V747.881C194.08 747.523 194.018 747.214 193.895 746.953C193.771 746.693 193.582 746.491 193.328 746.348C193.074 746.204 192.752 746.133 192.361 746.133C192.016 746.133 191.714 746.191 191.453 746.309C191.199 746.426 191.004 746.592 190.867 746.807C190.73 747.015 190.662 747.256 190.662 747.529H188.074C188.074 747.093 188.178 746.68 188.387 746.289C188.595 745.892 188.891 745.54 189.275 745.234C189.666 744.922 190.132 744.678 190.672 744.502C191.219 744.326 191.831 744.238 192.508 744.238C193.309 744.238 194.021 744.375 194.646 744.648C195.278 744.915 195.773 745.319 196.131 745.859C196.495 746.4 196.678 747.08 196.678 747.9V752.51C196.678 753.037 196.71 753.49 196.775 753.867C196.847 754.238 196.951 754.561 197.088 754.834V755H194.461C194.337 754.733 194.243 754.395 194.178 753.984C194.113 753.568 194.08 753.158 194.08 752.754ZM194.441 748.564L194.461 750.098H192.83C192.426 750.098 192.072 750.14 191.766 750.225C191.46 750.303 191.209 750.42 191.014 750.576C190.818 750.726 190.672 750.908 190.574 751.123C190.477 751.331 190.428 751.569 190.428 751.836C190.428 752.096 190.486 752.331 190.604 752.539C190.727 752.747 190.903 752.913 191.131 753.037C191.365 753.154 191.639 753.213 191.951 753.213C192.407 753.213 192.804 753.122 193.143 752.939C193.481 752.751 193.745 752.523 193.934 752.256C194.122 751.989 194.223 751.735 194.236 751.494L194.979 752.607C194.887 752.874 194.751 753.158 194.568 753.457C194.386 753.757 194.152 754.036 193.865 754.297C193.579 754.557 193.234 754.772 192.83 754.941C192.426 755.111 191.958 755.195 191.424 755.195C190.74 755.195 190.128 755.059 189.588 754.785C189.048 754.512 188.621 754.137 188.309 753.662C187.996 753.187 187.84 752.646 187.84 752.041C187.84 751.481 187.944 750.986 188.152 750.557C188.361 750.127 188.67 749.766 189.08 749.473C189.49 749.173 189.998 748.949 190.604 748.799C191.215 748.643 191.915 748.564 192.703 748.564H194.441ZM204.812 752.109C204.812 751.888 204.754 751.689 204.637 751.514C204.52 751.338 204.298 751.178 203.973 751.035C203.654 750.885 203.185 750.745 202.566 750.615C202.02 750.498 201.515 750.352 201.053 750.176C200.59 750 200.193 749.788 199.861 749.541C199.529 749.287 199.269 748.991 199.08 748.652C198.898 748.307 198.807 747.91 198.807 747.461C198.807 747.025 198.901 746.615 199.09 746.23C199.279 745.84 199.552 745.498 199.91 745.205C200.268 744.906 200.704 744.671 201.219 744.502C201.733 744.326 202.312 744.238 202.957 744.238C203.855 744.238 204.627 744.385 205.271 744.678C205.923 744.971 206.421 745.374 206.766 745.889C207.111 746.396 207.283 746.969 207.283 747.607H204.705C204.705 747.327 204.64 747.074 204.51 746.846C204.386 746.618 204.194 746.436 203.934 746.299C203.673 746.156 203.344 746.084 202.947 746.084C202.589 746.084 202.286 746.143 202.039 746.26C201.798 746.377 201.616 746.53 201.492 746.719C201.368 746.908 201.307 747.116 201.307 747.344C201.307 747.513 201.339 747.666 201.404 747.803C201.476 747.933 201.59 748.053 201.746 748.164C201.902 748.275 202.114 748.376 202.381 748.467C202.654 748.558 202.99 748.646 203.387 748.73C204.174 748.887 204.861 749.095 205.447 749.355C206.04 749.609 206.502 749.948 206.834 750.371C207.166 750.794 207.332 751.335 207.332 751.992C207.332 752.461 207.231 752.891 207.029 753.281C206.827 753.665 206.535 754.001 206.15 754.287C205.766 754.574 205.307 754.798 204.773 754.961C204.24 755.117 203.637 755.195 202.967 755.195C201.997 755.195 201.176 755.023 200.506 754.678C199.835 754.326 199.327 753.883 198.982 753.35C198.637 752.809 198.465 752.249 198.465 751.67H200.936C200.955 752.08 201.066 752.409 201.268 752.656C201.469 752.904 201.723 753.083 202.029 753.193C202.342 753.298 202.671 753.35 203.016 753.35C203.406 753.35 203.735 753.298 204.002 753.193C204.269 753.083 204.471 752.936 204.607 752.754C204.744 752.565 204.812 752.35 204.812 752.109ZM214.295 744.434V746.289H208.24V744.434H214.295ZM209.861 741.836H212.449V751.953C212.449 752.266 212.492 752.507 212.576 752.676C212.661 752.845 212.788 752.959 212.957 753.018C213.126 753.076 213.328 753.105 213.562 753.105C213.732 753.105 213.888 753.096 214.031 753.076C214.174 753.057 214.295 753.037 214.393 753.018L214.402 754.951C214.188 755.023 213.943 755.081 213.67 755.127C213.403 755.173 213.1 755.195 212.762 755.195C212.182 755.195 211.674 755.098 211.238 754.902C210.802 754.701 210.464 754.378 210.223 753.936C209.982 753.486 209.861 752.894 209.861 752.158V741.836ZM218.592 746.592V755H216.014V744.434H218.455L218.592 746.592ZM221.805 744.365L221.766 746.768C221.622 746.742 221.46 746.722 221.277 746.709C221.102 746.696 220.936 746.689 220.779 746.689C220.382 746.689 220.034 746.745 219.734 746.855C219.435 746.96 219.184 747.113 218.982 747.314C218.787 747.516 218.637 747.764 218.533 748.057C218.429 748.343 218.37 748.669 218.357 749.033L217.801 748.965C217.801 748.294 217.869 747.673 218.006 747.1C218.143 746.527 218.341 746.025 218.602 745.596C218.862 745.166 219.188 744.834 219.578 744.6C219.975 744.359 220.431 744.238 220.945 744.238C221.089 744.238 221.242 744.251 221.404 744.277C221.574 744.297 221.707 744.326 221.805 744.365ZM228.709 752.754V747.881C228.709 747.523 228.647 747.214 228.523 746.953C228.4 746.693 228.211 746.491 227.957 746.348C227.703 746.204 227.381 746.133 226.99 746.133C226.645 746.133 226.342 746.191 226.082 746.309C225.828 746.426 225.633 746.592 225.496 746.807C225.359 747.015 225.291 747.256 225.291 747.529H222.703C222.703 747.093 222.807 746.68 223.016 746.289C223.224 745.892 223.52 745.54 223.904 745.234C224.295 744.922 224.76 744.678 225.301 744.502C225.848 744.326 226.46 744.238 227.137 744.238C227.938 744.238 228.65 744.375 229.275 744.648C229.907 744.915 230.402 745.319 230.76 745.859C231.124 746.4 231.307 747.08 231.307 747.9V752.51C231.307 753.037 231.339 753.49 231.404 753.867C231.476 754.238 231.58 754.561 231.717 754.834V755H229.09C228.966 754.733 228.872 754.395 228.807 753.984C228.742 753.568 228.709 753.158 228.709 752.754ZM229.07 748.564L229.09 750.098H227.459C227.055 750.098 226.701 750.14 226.395 750.225C226.089 750.303 225.838 750.42 225.643 750.576C225.447 750.726 225.301 750.908 225.203 751.123C225.105 751.331 225.057 751.569 225.057 751.836C225.057 752.096 225.115 752.331 225.232 752.539C225.356 752.747 225.532 752.913 225.76 753.037C225.994 753.154 226.268 753.213 226.58 753.213C227.036 753.213 227.433 753.122 227.771 752.939C228.11 752.751 228.374 752.523 228.562 752.256C228.751 751.989 228.852 751.735 228.865 751.494L229.607 752.607C229.516 752.874 229.38 753.158 229.197 753.457C229.015 753.757 228.781 754.036 228.494 754.297C228.208 754.557 227.863 754.772 227.459 754.941C227.055 755.111 226.587 755.195 226.053 755.195C225.369 755.195 224.757 755.059 224.217 754.785C223.676 754.512 223.25 754.137 222.938 753.662C222.625 753.187 222.469 752.646 222.469 752.041C222.469 751.481 222.573 750.986 222.781 750.557C222.99 750.127 223.299 749.766 223.709 749.473C224.119 749.173 224.627 748.949 225.232 748.799C225.844 748.643 226.544 748.564 227.332 748.564H229.07ZM236.209 746.592V755H233.631V744.434H236.072L236.209 746.592ZM239.422 744.365L239.383 746.768C239.24 746.742 239.077 746.722 238.895 746.709C238.719 746.696 238.553 746.689 238.396 746.689C237.999 746.689 237.651 746.745 237.352 746.855C237.052 746.96 236.801 747.113 236.6 747.314C236.404 747.516 236.255 747.764 236.15 748.057C236.046 748.343 235.988 748.669 235.975 749.033L235.418 748.965C235.418 748.294 235.486 747.673 235.623 747.1C235.76 746.527 235.958 746.025 236.219 745.596C236.479 745.166 236.805 744.834 237.195 744.6C237.592 744.359 238.048 744.238 238.562 744.238C238.706 744.238 238.859 744.251 239.021 744.277C239.191 744.297 239.324 744.326 239.422 744.365Z" fill="white"/>
<g filter="url(#filter1_d_84_28883)">
<rect x="66" y="405" width="261" height="50" rx="10" fill="#EBEBEB"/>
<line x1="83" y1="451.5" x2="313" y2="451.5" stroke="black" stroke-opacity="0.5"/>
</g>
<path d="M101.273 386.625V398H98.9297L94.3594 390.375V398H92.0156V386.625H94.3594L98.9375 394.258V386.625H101.273ZM102.812 393.859V393.695C102.812 393.076 102.901 392.505 103.078 391.984C103.255 391.458 103.513 391.003 103.852 390.617C104.19 390.232 104.607 389.932 105.102 389.719C105.596 389.5 106.164 389.391 106.805 389.391C107.445 389.391 108.016 389.5 108.516 389.719C109.016 389.932 109.435 390.232 109.773 390.617C110.117 391.003 110.378 391.458 110.555 391.984C110.732 392.505 110.82 393.076 110.82 393.695V393.859C110.82 394.474 110.732 395.044 110.555 395.57C110.378 396.091 110.117 396.547 109.773 396.938C109.435 397.323 109.018 397.622 108.523 397.836C108.029 398.049 107.461 398.156 106.82 398.156C106.18 398.156 105.609 398.049 105.109 397.836C104.615 397.622 104.195 397.323 103.852 396.938C103.513 396.547 103.255 396.091 103.078 395.57C102.901 395.044 102.812 394.474 102.812 393.859ZM105.062 393.695V393.859C105.062 394.214 105.094 394.544 105.156 394.852C105.219 395.159 105.318 395.43 105.453 395.664C105.594 395.893 105.776 396.073 106 396.203C106.224 396.333 106.497 396.398 106.82 396.398C107.133 396.398 107.401 396.333 107.625 396.203C107.849 396.073 108.029 395.893 108.164 395.664C108.299 395.43 108.398 395.159 108.461 394.852C108.529 394.544 108.562 394.214 108.562 393.859V393.695C108.562 393.352 108.529 393.029 108.461 392.727C108.398 392.419 108.297 392.148 108.156 391.914C108.021 391.674 107.841 391.487 107.617 391.352C107.393 391.216 107.122 391.148 106.805 391.148C106.487 391.148 106.216 391.216 105.992 391.352C105.773 391.487 105.594 391.674 105.453 391.914C105.318 392.148 105.219 392.419 105.156 392.727C105.094 393.029 105.062 393.352 105.062 393.695ZM114.453 391.297V398H112.195V389.547H114.312L114.453 391.297ZM114.141 393.477H113.516C113.516 392.888 113.586 392.346 113.727 391.852C113.872 391.352 114.083 390.919 114.359 390.555C114.641 390.185 114.987 389.898 115.398 389.695C115.81 389.492 116.286 389.391 116.828 389.391C117.203 389.391 117.547 389.448 117.859 389.562C118.172 389.672 118.44 389.846 118.664 390.086C118.893 390.32 119.07 390.628 119.195 391.008C119.32 391.383 119.383 391.833 119.383 392.359V398H117.133V392.609C117.133 392.224 117.081 391.927 116.977 391.719C116.872 391.51 116.724 391.365 116.531 391.281C116.344 391.198 116.117 391.156 115.852 391.156C115.56 391.156 115.305 391.216 115.086 391.336C114.872 391.456 114.695 391.622 114.555 391.836C114.414 392.044 114.31 392.289 114.242 392.57C114.174 392.852 114.141 393.154 114.141 393.477ZM119.172 393.219L118.367 393.32C118.367 392.768 118.435 392.255 118.57 391.781C118.711 391.307 118.917 390.891 119.188 390.531C119.464 390.172 119.805 389.893 120.211 389.695C120.617 389.492 121.086 389.391 121.617 389.391C122.023 389.391 122.393 389.451 122.727 389.57C123.06 389.685 123.344 389.87 123.578 390.125C123.818 390.375 124 390.703 124.125 391.109C124.255 391.516 124.32 392.013 124.32 392.602V398H122.062V392.602C122.062 392.211 122.01 391.914 121.906 391.711C121.807 391.503 121.661 391.359 121.469 391.281C121.281 391.198 121.057 391.156 120.797 391.156C120.526 391.156 120.289 391.211 120.086 391.32C119.883 391.424 119.714 391.57 119.578 391.758C119.443 391.945 119.341 392.164 119.273 392.414C119.206 392.659 119.172 392.927 119.172 393.219ZM129.953 398.156C129.297 398.156 128.708 398.052 128.188 397.844C127.667 397.63 127.224 397.336 126.859 396.961C126.5 396.586 126.224 396.151 126.031 395.656C125.839 395.156 125.742 394.625 125.742 394.062V393.75C125.742 393.109 125.833 392.523 126.016 391.992C126.198 391.461 126.458 391 126.797 390.609C127.141 390.219 127.557 389.919 128.047 389.711C128.536 389.497 129.089 389.391 129.703 389.391C130.302 389.391 130.833 389.49 131.297 389.688C131.76 389.885 132.148 390.167 132.461 390.531C132.779 390.896 133.018 391.333 133.18 391.844C133.341 392.349 133.422 392.911 133.422 393.531V394.469H126.703V392.969H131.211V392.797C131.211 392.484 131.154 392.206 131.039 391.961C130.93 391.711 130.763 391.513 130.539 391.367C130.315 391.221 130.029 391.148 129.68 391.148C129.383 391.148 129.128 391.214 128.914 391.344C128.701 391.474 128.526 391.656 128.391 391.891C128.26 392.125 128.161 392.401 128.094 392.719C128.031 393.031 128 393.375 128 393.75V394.062C128 394.401 128.047 394.714 128.141 395C128.24 395.286 128.378 395.534 128.555 395.742C128.737 395.951 128.956 396.112 129.211 396.227C129.471 396.341 129.766 396.398 130.094 396.398C130.5 396.398 130.878 396.32 131.227 396.164C131.581 396.003 131.885 395.76 132.141 395.438L133.234 396.625C133.057 396.88 132.815 397.125 132.508 397.359C132.206 397.594 131.841 397.786 131.414 397.938C130.987 398.083 130.5 398.156 129.953 398.156Z" fill="black"/>
<g filter="url(#filter2_d_84_28883)">
<rect x="66" y="489" width="261" height="50" rx="10" fill="#EBEBEB"/>
<line x1="81" y1="535.5" x2="311" y2="535.5" stroke="black" stroke-opacity="0.5"/>
</g>
<path d="M97.1016 470.625V482H94.7656V470.625H97.1016ZM100.602 470.625V472.461H91.3203V470.625H100.602ZM104.953 482.156C104.297 482.156 103.708 482.052 103.188 481.844C102.667 481.63 102.224 481.336 101.859 480.961C101.5 480.586 101.224 480.151 101.031 479.656C100.839 479.156 100.742 478.625 100.742 478.062V477.75C100.742 477.109 100.833 476.523 101.016 475.992C101.198 475.461 101.458 475 101.797 474.609C102.141 474.219 102.557 473.919 103.047 473.711C103.536 473.497 104.089 473.391 104.703 473.391C105.302 473.391 105.833 473.49 106.297 473.688C106.76 473.885 107.148 474.167 107.461 474.531C107.779 474.896 108.018 475.333 108.18 475.844C108.341 476.349 108.422 476.911 108.422 477.531V478.469H101.703V476.969H106.211V476.797C106.211 476.484 106.154 476.206 106.039 475.961C105.93 475.711 105.763 475.513 105.539 475.367C105.315 475.221 105.029 475.148 104.68 475.148C104.383 475.148 104.128 475.214 103.914 475.344C103.701 475.474 103.526 475.656 103.391 475.891C103.26 476.125 103.161 476.401 103.094 476.719C103.031 477.031 103 477.375 103 477.75V478.062C103 478.401 103.047 478.714 103.141 479C103.24 479.286 103.378 479.534 103.555 479.742C103.737 479.951 103.956 480.112 104.211 480.227C104.471 480.341 104.766 480.398 105.094 480.398C105.5 480.398 105.878 480.32 106.227 480.164C106.581 480.003 106.885 479.76 107.141 479.438L108.234 480.625C108.057 480.88 107.815 481.125 107.508 481.359C107.206 481.594 106.841 481.786 106.414 481.938C105.987 482.083 105.5 482.156 104.953 482.156ZM112.078 470V482H109.82V470H112.078ZM117.828 482.156C117.172 482.156 116.583 482.052 116.062 481.844C115.542 481.63 115.099 481.336 114.734 480.961C114.375 480.586 114.099 480.151 113.906 479.656C113.714 479.156 113.617 478.625 113.617 478.062V477.75C113.617 477.109 113.708 476.523 113.891 475.992C114.073 475.461 114.333 475 114.672 474.609C115.016 474.219 115.432 473.919 115.922 473.711C116.411 473.497 116.964 473.391 117.578 473.391C118.177 473.391 118.708 473.49 119.172 473.688C119.635 473.885 120.023 474.167 120.336 474.531C120.654 474.896 120.893 475.333 121.055 475.844C121.216 476.349 121.297 476.911 121.297 477.531V478.469H114.578V476.969H119.086V476.797C119.086 476.484 119.029 476.206 118.914 475.961C118.805 475.711 118.638 475.513 118.414 475.367C118.19 475.221 117.904 475.148 117.555 475.148C117.258 475.148 117.003 475.214 116.789 475.344C116.576 475.474 116.401 475.656 116.266 475.891C116.135 476.125 116.036 476.401 115.969 476.719C115.906 477.031 115.875 477.375 115.875 477.75V478.062C115.875 478.401 115.922 478.714 116.016 479C116.115 479.286 116.253 479.534 116.43 479.742C116.612 479.951 116.831 480.112 117.086 480.227C117.346 480.341 117.641 480.398 117.969 480.398C118.375 480.398 118.753 480.32 119.102 480.164C119.456 480.003 119.76 479.76 120.016 479.438L121.109 480.625C120.932 480.88 120.69 481.125 120.383 481.359C120.081 481.594 119.716 481.786 119.289 481.938C118.862 482.083 118.375 482.156 117.828 482.156ZM125.445 482H123.18V472.797C123.18 472.156 123.305 471.617 123.555 471.18C123.81 470.737 124.167 470.404 124.625 470.18C125.089 469.951 125.638 469.836 126.273 469.836C126.482 469.836 126.682 469.852 126.875 469.883C127.068 469.909 127.255 469.943 127.438 469.984L127.414 471.68C127.315 471.654 127.211 471.635 127.102 471.625C126.992 471.615 126.865 471.609 126.719 471.609C126.448 471.609 126.216 471.656 126.023 471.75C125.836 471.839 125.693 471.971 125.594 472.148C125.495 472.326 125.445 472.542 125.445 472.797V482ZM127.133 473.547V475.141H121.922V473.547H127.133ZM127.953 477.859V477.695C127.953 477.076 128.042 476.505 128.219 475.984C128.396 475.458 128.654 475.003 128.992 474.617C129.331 474.232 129.747 473.932 130.242 473.719C130.737 473.5 131.305 473.391 131.945 473.391C132.586 473.391 133.156 473.5 133.656 473.719C134.156 473.932 134.576 474.232 134.914 474.617C135.258 475.003 135.518 475.458 135.695 475.984C135.872 476.505 135.961 477.076 135.961 477.695V477.859C135.961 478.474 135.872 479.044 135.695 479.57C135.518 480.091 135.258 480.547 134.914 480.938C134.576 481.323 134.159 481.622 133.664 481.836C133.169 482.049 132.602 482.156 131.961 482.156C131.32 482.156 130.75 482.049 130.25 481.836C129.755 481.622 129.336 481.323 128.992 480.938C128.654 480.547 128.396 480.091 128.219 479.57C128.042 479.044 127.953 478.474 127.953 477.859ZM130.203 477.695V477.859C130.203 478.214 130.234 478.544 130.297 478.852C130.359 479.159 130.458 479.43 130.594 479.664C130.734 479.893 130.917 480.073 131.141 480.203C131.365 480.333 131.638 480.398 131.961 480.398C132.273 480.398 132.542 480.333 132.766 480.203C132.99 480.073 133.169 479.893 133.305 479.664C133.44 479.43 133.539 479.159 133.602 478.852C133.669 478.544 133.703 478.214 133.703 477.859V477.695C133.703 477.352 133.669 477.029 133.602 476.727C133.539 476.419 133.438 476.148 133.297 475.914C133.161 475.674 132.982 475.487 132.758 475.352C132.534 475.216 132.263 475.148 131.945 475.148C131.628 475.148 131.357 475.216 131.133 475.352C130.914 475.487 130.734 475.674 130.594 475.914C130.458 476.148 130.359 476.419 130.297 476.727C130.234 477.029 130.203 477.352 130.203 477.695ZM139.547 475.352V482H137.297V473.547H139.406L139.547 475.352ZM139.219 477.477H138.609C138.609 476.852 138.69 476.289 138.852 475.789C139.013 475.284 139.24 474.854 139.531 474.5C139.823 474.141 140.169 473.867 140.57 473.68C140.977 473.487 141.43 473.391 141.93 473.391C142.326 473.391 142.688 473.448 143.016 473.562C143.344 473.677 143.625 473.859 143.859 474.109C144.099 474.359 144.281 474.69 144.406 475.102C144.536 475.513 144.602 476.016 144.602 476.609V482H142.336V476.602C142.336 476.227 142.284 475.935 142.18 475.727C142.076 475.518 141.922 475.372 141.719 475.289C141.521 475.201 141.276 475.156 140.984 475.156C140.682 475.156 140.419 475.216 140.195 475.336C139.977 475.456 139.794 475.622 139.648 475.836C139.508 476.044 139.401 476.289 139.328 476.57C139.255 476.852 139.219 477.154 139.219 477.477ZM150.203 482.156C149.547 482.156 148.958 482.052 148.438 481.844C147.917 481.63 147.474 481.336 147.109 480.961C146.75 480.586 146.474 480.151 146.281 479.656C146.089 479.156 145.992 478.625 145.992 478.062V477.75C145.992 477.109 146.083 476.523 146.266 475.992C146.448 475.461 146.708 475 147.047 474.609C147.391 474.219 147.807 473.919 148.297 473.711C148.786 473.497 149.339 473.391 149.953 473.391C150.552 473.391 151.083 473.49 151.547 473.688C152.01 473.885 152.398 474.167 152.711 474.531C153.029 474.896 153.268 475.333 153.43 475.844C153.591 476.349 153.672 476.911 153.672 477.531V478.469H146.953V476.969H151.461V476.797C151.461 476.484 151.404 476.206 151.289 475.961C151.18 475.711 151.013 475.513 150.789 475.367C150.565 475.221 150.279 475.148 149.93 475.148C149.633 475.148 149.378 475.214 149.164 475.344C148.951 475.474 148.776 475.656 148.641 475.891C148.51 476.125 148.411 476.401 148.344 476.719C148.281 477.031 148.25 477.375 148.25 477.75V478.062C148.25 478.401 148.297 478.714 148.391 479C148.49 479.286 148.628 479.534 148.805 479.742C148.987 479.951 149.206 480.112 149.461 480.227C149.721 480.341 150.016 480.398 150.344 480.398C150.75 480.398 151.128 480.32 151.477 480.164C151.831 480.003 152.135 479.76 152.391 479.438L153.484 480.625C153.307 480.88 153.065 481.125 152.758 481.359C152.456 481.594 152.091 481.786 151.664 481.938C151.237 482.083 150.75 482.156 150.203 482.156Z" fill="black"/>
<g filter="url(#filter3_d_84_28883)">
<rect x="66" y="572" width="261" height="50" rx="10" fill="#EBEBEB"/>
<line x1="81" y1="618.5" x2="311" y2="618.5" stroke="black" stroke-opacity="0.5"/>
</g>
<path d="M99.6484 563.172V565H93.5938V563.172H99.6484ZM94.3594 553.625V565H92.0156V553.625H94.3594ZM98.8594 558.258V560.039H93.5938V558.258H98.8594ZM99.6406 553.625V555.461H93.5938V553.625H99.6406ZM105.312 559.234V561H100.898V559.234H105.312ZM109.438 558.297V565H107.18V556.547H109.297L109.438 558.297ZM109.125 560.477H108.5C108.5 559.888 108.57 559.346 108.711 558.852C108.857 558.352 109.068 557.919 109.344 557.555C109.625 557.185 109.971 556.898 110.383 556.695C110.794 556.492 111.271 556.391 111.812 556.391C112.188 556.391 112.531 556.448 112.844 556.562C113.156 556.672 113.424 556.846 113.648 557.086C113.878 557.32 114.055 557.628 114.18 558.008C114.305 558.383 114.367 558.833 114.367 559.359V565H112.117V559.609C112.117 559.224 112.065 558.927 111.961 558.719C111.857 558.51 111.708 558.365 111.516 558.281C111.328 558.198 111.102 558.156 110.836 558.156C110.544 558.156 110.289 558.216 110.07 558.336C109.857 558.456 109.68 558.622 109.539 558.836C109.398 559.044 109.294 559.289 109.227 559.57C109.159 559.852 109.125 560.154 109.125 560.477ZM114.156 560.219L113.352 560.32C113.352 559.768 113.419 559.255 113.555 558.781C113.695 558.307 113.901 557.891 114.172 557.531C114.448 557.172 114.789 556.893 115.195 556.695C115.602 556.492 116.07 556.391 116.602 556.391C117.008 556.391 117.378 556.451 117.711 556.57C118.044 556.685 118.328 556.87 118.562 557.125C118.802 557.375 118.984 557.703 119.109 558.109C119.24 558.516 119.305 559.013 119.305 559.602V565H117.047V559.602C117.047 559.211 116.995 558.914 116.891 558.711C116.792 558.503 116.646 558.359 116.453 558.281C116.266 558.198 116.042 558.156 115.781 558.156C115.51 558.156 115.273 558.211 115.07 558.32C114.867 558.424 114.698 558.57 114.562 558.758C114.427 558.945 114.326 559.164 114.258 559.414C114.19 559.659 114.156 559.927 114.156 560.219ZM125.609 563.094V559.328C125.609 559.057 125.565 558.826 125.477 558.633C125.388 558.435 125.25 558.281 125.062 558.172C124.88 558.062 124.643 558.008 124.352 558.008C124.102 558.008 123.885 558.052 123.703 558.141C123.521 558.224 123.38 558.346 123.281 558.508C123.182 558.664 123.133 558.849 123.133 559.062H120.883C120.883 558.703 120.966 558.362 121.133 558.039C121.299 557.716 121.542 557.432 121.859 557.188C122.177 556.938 122.555 556.742 122.992 556.602C123.435 556.461 123.93 556.391 124.477 556.391C125.133 556.391 125.716 556.5 126.227 556.719C126.737 556.938 127.138 557.266 127.43 557.703C127.727 558.141 127.875 558.688 127.875 559.344V562.961C127.875 563.424 127.904 563.805 127.961 564.102C128.018 564.393 128.102 564.648 128.211 564.867V565H125.938C125.828 564.771 125.745 564.484 125.688 564.141C125.635 563.792 125.609 563.443 125.609 563.094ZM125.906 559.852L125.922 561.125H124.664C124.367 561.125 124.109 561.159 123.891 561.227C123.672 561.294 123.492 561.391 123.352 561.516C123.211 561.635 123.107 561.776 123.039 561.938C122.977 562.099 122.945 562.276 122.945 562.469C122.945 562.661 122.99 562.836 123.078 562.992C123.167 563.143 123.294 563.263 123.461 563.352C123.628 563.435 123.823 563.477 124.047 563.477C124.385 563.477 124.68 563.409 124.93 563.273C125.18 563.138 125.372 562.971 125.508 562.773C125.648 562.576 125.721 562.388 125.727 562.211L126.32 563.164C126.237 563.378 126.122 563.599 125.977 563.828C125.836 564.057 125.656 564.273 125.438 564.477C125.219 564.674 124.956 564.839 124.648 564.969C124.341 565.094 123.977 565.156 123.555 565.156C123.018 565.156 122.531 565.049 122.094 564.836C121.661 564.617 121.318 564.318 121.062 563.938C120.812 563.552 120.688 563.115 120.688 562.625C120.688 562.182 120.771 561.789 120.938 561.445C121.104 561.102 121.349 560.812 121.672 560.578C122 560.339 122.409 560.159 122.898 560.039C123.388 559.914 123.956 559.852 124.602 559.852H125.906ZM131.984 556.547V565H129.727V556.547H131.984ZM129.586 554.344C129.586 554.016 129.701 553.745 129.93 553.531C130.159 553.318 130.466 553.211 130.852 553.211C131.232 553.211 131.536 553.318 131.766 553.531C132 553.745 132.117 554.016 132.117 554.344C132.117 554.672 132 554.943 131.766 555.156C131.536 555.37 131.232 555.477 130.852 555.477C130.466 555.477 130.159 555.37 129.93 555.156C129.701 554.943 129.586 554.672 129.586 554.344ZM136.219 553V565H133.961V553H136.219Z" fill="black"/>
<g filter="url(#filter4_d_84_28883)">
<rect x="66" y="653" width="261" height="50" rx="10" fill="#EBEBEB"/>
<mask id="mask0_84_28883" style="mask-type:luminance" maskUnits="userSpaceOnUse" x="297" y="669" width="19" height="19">
<path d="M297 669H315.478V687.484H297V669Z" fill="white"/>
</mask>
<g mask="url(#mask0_84_28883)">
<path d="M306.239 669C301.153 669 297 673.159 297 678.239C297 683.325 301.153 687.484 306.239 687.484C311.325 687.484 315.478 683.325 315.478 678.239C315.478 673.159 311.325 669 306.239 669ZM309.659 677.966L306.886 680.732C306.699 680.919 306.519 681.012 306.239 681.012C305.959 681.012 305.779 680.919 305.592 680.732L302.819 677.966C302.453 677.592 302.453 677.039 302.819 676.666C303.186 676.299 303.746 676.299 304.113 676.666L306.239 678.792L308.365 676.666C308.732 676.299 309.292 676.299 309.659 676.666C310.025 677.039 310.025 677.592 309.659 677.966Z" fill="black"/>
</g>
</g>
<path d="M82.4453 352.945H79.5469V351.117H82.4453C82.8932 351.117 83.2578 351.044 83.5391 350.898C83.8203 350.747 84.026 350.539 84.1562 350.273C84.2865 350.008 84.3516 349.708 84.3516 349.375C84.3516 349.036 84.2865 348.721 84.1562 348.43C84.026 348.138 83.8203 347.904 83.5391 347.727C83.2578 347.549 82.8932 347.461 82.4453 347.461H80.3594V357H78.0156V345.625H82.4453C83.3359 345.625 84.099 345.786 84.7344 346.109C85.375 346.427 85.8646 346.867 86.2031 347.43C86.5417 347.992 86.7109 348.635 86.7109 349.359C86.7109 350.094 86.5417 350.729 86.2031 351.266C85.8646 351.802 85.375 352.216 84.7344 352.508C84.099 352.799 83.3359 352.945 82.4453 352.945ZM92.6562 355.094V351.328C92.6562 351.057 92.612 350.826 92.5234 350.633C92.4349 350.435 92.2969 350.281 92.1094 350.172C91.9271 350.062 91.6901 350.008 91.3984 350.008C91.1484 350.008 90.9323 350.052 90.75 350.141C90.5677 350.224 90.4271 350.346 90.3281 350.508C90.2292 350.664 90.1797 350.849 90.1797 351.062H87.9297C87.9297 350.703 88.013 350.362 88.1797 350.039C88.3464 349.716 88.5885 349.432 88.9062 349.188C89.224 348.938 89.6016 348.742 90.0391 348.602C90.4818 348.461 90.9766 348.391 91.5234 348.391C92.1797 348.391 92.763 348.5 93.2734 348.719C93.7839 348.938 94.1849 349.266 94.4766 349.703C94.7734 350.141 94.9219 350.688 94.9219 351.344V354.961C94.9219 355.424 94.9505 355.805 95.0078 356.102C95.0651 356.393 95.1484 356.648 95.2578 356.867V357H92.9844C92.875 356.771 92.7917 356.484 92.7344 356.141C92.6823 355.792 92.6562 355.443 92.6562 355.094ZM92.9531 351.852L92.9688 353.125H91.7109C91.4141 353.125 91.1562 353.159 90.9375 353.227C90.7188 353.294 90.5391 353.391 90.3984 353.516C90.2578 353.635 90.1536 353.776 90.0859 353.938C90.0234 354.099 89.9922 354.276 89.9922 354.469C89.9922 354.661 90.0365 354.836 90.125 354.992C90.2135 355.143 90.3411 355.263 90.5078 355.352C90.6745 355.435 90.8698 355.477 91.0938 355.477C91.4323 355.477 91.7266 355.409 91.9766 355.273C92.2266 355.138 92.4193 354.971 92.5547 354.773C92.6953 354.576 92.7682 354.388 92.7734 354.211L93.3672 355.164C93.2839 355.378 93.1693 355.599 93.0234 355.828C92.8828 356.057 92.7031 356.273 92.4844 356.477C92.2656 356.674 92.0026 356.839 91.6953 356.969C91.388 357.094 91.0234 357.156 90.6016 357.156C90.0651 357.156 89.5781 357.049 89.1406 356.836C88.7083 356.617 88.3646 356.318 88.1094 355.938C87.8594 355.552 87.7344 355.115 87.7344 354.625C87.7344 354.182 87.8177 353.789 87.9844 353.445C88.151 353.102 88.3958 352.812 88.7188 352.578C89.0469 352.339 89.4557 352.159 89.9453 352.039C90.4349 351.914 91.0026 351.852 91.6484 351.852H92.9531ZM101.227 354.664C101.227 354.503 101.18 354.357 101.086 354.227C100.992 354.096 100.818 353.977 100.562 353.867C100.312 353.753 99.9505 353.648 99.4766 353.555C99.0495 353.461 98.651 353.344 98.2812 353.203C97.9167 353.057 97.599 352.883 97.3281 352.68C97.0625 352.477 96.8542 352.237 96.7031 351.961C96.5521 351.68 96.4766 351.359 96.4766 351C96.4766 350.646 96.5521 350.312 96.7031 350C96.8594 349.688 97.0807 349.411 97.3672 349.172C97.6589 348.927 98.013 348.737 98.4297 348.602C98.8516 348.461 99.3255 348.391 99.8516 348.391C100.586 348.391 101.216 348.508 101.742 348.742C102.273 348.977 102.68 349.299 102.961 349.711C103.247 350.117 103.391 350.581 103.391 351.102H101.141C101.141 350.883 101.094 350.688 101 350.516C100.911 350.339 100.771 350.201 100.578 350.102C100.391 349.997 100.146 349.945 99.8438 349.945C99.5938 349.945 99.3776 349.99 99.1953 350.078C99.013 350.161 98.8724 350.276 98.7734 350.422C98.6797 350.562 98.6328 350.719 98.6328 350.891C98.6328 351.021 98.6589 351.138 98.7109 351.242C98.7682 351.341 98.8594 351.432 98.9844 351.516C99.1094 351.599 99.2708 351.677 99.4688 351.75C99.6719 351.818 99.9219 351.88 100.219 351.938C100.828 352.062 101.372 352.227 101.852 352.43C102.331 352.628 102.711 352.898 102.992 353.242C103.273 353.581 103.414 354.026 103.414 354.578C103.414 354.953 103.331 355.297 103.164 355.609C102.997 355.922 102.758 356.195 102.445 356.43C102.133 356.659 101.758 356.839 101.32 356.969C100.888 357.094 100.401 357.156 99.8594 357.156C99.0729 357.156 98.4062 357.016 97.8594 356.734C97.3177 356.453 96.9062 356.096 96.625 355.664C96.349 355.227 96.2109 354.779 96.2109 354.32H98.3438C98.3542 354.628 98.4323 354.875 98.5781 355.062C98.7292 355.25 98.9193 355.385 99.1484 355.469C99.3828 355.552 99.6354 355.594 99.9062 355.594C100.198 355.594 100.44 355.555 100.633 355.477C100.826 355.393 100.971 355.284 101.07 355.148C101.174 355.008 101.227 354.846 101.227 354.664ZM109.445 354.664C109.445 354.503 109.398 354.357 109.305 354.227C109.211 354.096 109.036 353.977 108.781 353.867C108.531 353.753 108.169 353.648 107.695 353.555C107.268 353.461 106.87 353.344 106.5 353.203C106.135 353.057 105.818 352.883 105.547 352.68C105.281 352.477 105.073 352.237 104.922 351.961C104.771 351.68 104.695 351.359 104.695 351C104.695 350.646 104.771 350.312 104.922 350C105.078 349.688 105.299 349.411 105.586 349.172C105.878 348.927 106.232 348.737 106.648 348.602C107.07 348.461 107.544 348.391 108.07 348.391C108.805 348.391 109.435 348.508 109.961 348.742C110.492 348.977 110.898 349.299 111.18 349.711C111.466 350.117 111.609 350.581 111.609 351.102H109.359C109.359 350.883 109.312 350.688 109.219 350.516C109.13 350.339 108.99 350.201 108.797 350.102C108.609 349.997 108.365 349.945 108.062 349.945C107.812 349.945 107.596 349.99 107.414 350.078C107.232 350.161 107.091 350.276 106.992 350.422C106.898 350.562 106.852 350.719 106.852 350.891C106.852 351.021 106.878 351.138 106.93 351.242C106.987 351.341 107.078 351.432 107.203 351.516C107.328 351.599 107.49 351.677 107.688 351.75C107.891 351.818 108.141 351.88 108.438 351.938C109.047 352.062 109.591 352.227 110.07 352.43C110.549 352.628 110.93 352.898 111.211 353.242C111.492 353.581 111.633 354.026 111.633 354.578C111.633 354.953 111.549 355.297 111.383 355.609C111.216 355.922 110.977 356.195 110.664 356.43C110.352 356.659 109.977 356.839 109.539 356.969C109.107 357.094 108.62 357.156 108.078 357.156C107.292 357.156 106.625 357.016 106.078 356.734C105.536 356.453 105.125 356.096 104.844 355.664C104.568 355.227 104.43 354.779 104.43 354.32H106.562C106.573 354.628 106.651 354.875 106.797 355.062C106.948 355.25 107.138 355.385 107.367 355.469C107.602 355.552 107.854 355.594 108.125 355.594C108.417 355.594 108.659 355.555 108.852 355.477C109.044 355.393 109.19 355.284 109.289 355.148C109.393 355.008 109.445 354.846 109.445 354.664ZM112.734 352.859V352.695C112.734 352.076 112.823 351.505 113 350.984C113.177 350.458 113.435 350.003 113.773 349.617C114.112 349.232 114.529 348.932 115.023 348.719C115.518 348.5 116.086 348.391 116.727 348.391C117.367 348.391 117.938 348.5 118.438 348.719C118.938 348.932 119.357 349.232 119.695 349.617C120.039 350.003 120.299 350.458 120.477 350.984C120.654 351.505 120.742 352.076 120.742 352.695V352.859C120.742 353.474 120.654 354.044 120.477 354.57C120.299 355.091 120.039 355.547 119.695 355.938C119.357 356.323 118.94 356.622 118.445 356.836C117.951 357.049 117.383 357.156 116.742 357.156C116.102 357.156 115.531 357.049 115.031 356.836C114.536 356.622 114.117 356.323 113.773 355.938C113.435 355.547 113.177 355.091 113 354.57C112.823 354.044 112.734 353.474 112.734 352.859ZM114.984 352.695V352.859C114.984 353.214 115.016 353.544 115.078 353.852C115.141 354.159 115.24 354.43 115.375 354.664C115.516 354.893 115.698 355.073 115.922 355.203C116.146 355.333 116.419 355.398 116.742 355.398C117.055 355.398 117.323 355.333 117.547 355.203C117.771 355.073 117.951 354.893 118.086 354.664C118.221 354.43 118.32 354.159 118.383 353.852C118.451 353.544 118.484 353.214 118.484 352.859V352.695C118.484 352.352 118.451 352.029 118.383 351.727C118.32 351.419 118.219 351.148 118.078 350.914C117.943 350.674 117.763 350.487 117.539 350.352C117.315 350.216 117.044 350.148 116.727 350.148C116.409 350.148 116.138 350.216 115.914 350.352C115.695 350.487 115.516 350.674 115.375 350.914C115.24 351.148 115.141 351.419 115.078 351.727C115.016 352.029 114.984 352.352 114.984 352.695ZM131.5 345.602V357H129.25V348.195L126.547 349.055V347.281L131.258 345.602H131.5ZM137.836 345.625L137.578 353.523H135.703L135.438 345.625H137.836ZM135.375 355.969C135.375 355.635 135.49 355.359 135.719 355.141C135.953 354.917 136.26 354.805 136.641 354.805C137.026 354.805 137.333 354.917 137.562 355.141C137.792 355.359 137.906 355.635 137.906 355.969C137.906 356.292 137.792 356.565 137.562 356.789C137.333 357.013 137.026 357.125 136.641 357.125C136.26 357.125 135.953 357.013 135.719 356.789C135.49 356.565 135.375 356.292 135.375 355.969Z" fill="#008000"/>
<path d="M97.1016 634.625V646H94.7656V634.625H97.1016ZM100.602 634.625V636.461H91.3203V634.625H100.602ZM106.203 643.977V637.547H108.453V646H106.336L106.203 643.977ZM106.453 642.242L107.117 642.227C107.117 642.789 107.052 643.312 106.922 643.797C106.792 644.276 106.596 644.693 106.336 645.047C106.076 645.396 105.747 645.669 105.352 645.867C104.956 646.06 104.49 646.156 103.953 646.156C103.542 646.156 103.161 646.099 102.812 645.984C102.469 645.865 102.172 645.68 101.922 645.43C101.677 645.174 101.484 644.849 101.344 644.453C101.208 644.052 101.141 643.57 101.141 643.008V637.547H103.391V643.023C103.391 643.273 103.419 643.484 103.477 643.656C103.539 643.828 103.625 643.969 103.734 644.078C103.844 644.188 103.971 644.266 104.117 644.312C104.268 644.359 104.435 644.383 104.617 644.383C105.081 644.383 105.445 644.289 105.711 644.102C105.982 643.914 106.172 643.659 106.281 643.336C106.396 643.008 106.453 642.643 106.453 642.242ZM112.422 639.391V646H110.172V637.547H112.289L112.422 639.391ZM114.969 637.492L114.93 639.578C114.82 639.562 114.688 639.549 114.531 639.539C114.38 639.523 114.242 639.516 114.117 639.516C113.799 639.516 113.523 639.557 113.289 639.641C113.06 639.719 112.867 639.836 112.711 639.992C112.56 640.148 112.445 640.339 112.367 640.562C112.294 640.786 112.253 641.042 112.242 641.328L111.789 641.188C111.789 640.641 111.844 640.138 111.953 639.68C112.062 639.216 112.221 638.812 112.43 638.469C112.643 638.125 112.904 637.859 113.211 637.672C113.518 637.484 113.87 637.391 114.266 637.391C114.391 637.391 114.518 637.401 114.648 637.422C114.779 637.438 114.885 637.461 114.969 637.492ZM118.281 639.297V646H116.023V637.547H118.141L118.281 639.297ZM117.969 641.477H117.344C117.344 640.888 117.414 640.346 117.555 639.852C117.701 639.352 117.911 638.919 118.188 638.555C118.469 638.185 118.815 637.898 119.227 637.695C119.638 637.492 120.115 637.391 120.656 637.391C121.031 637.391 121.375 637.448 121.688 637.562C122 637.672 122.268 637.846 122.492 638.086C122.721 638.32 122.898 638.628 123.023 639.008C123.148 639.383 123.211 639.833 123.211 640.359V646H120.961V640.609C120.961 640.224 120.909 639.927 120.805 639.719C120.701 639.51 120.552 639.365 120.359 639.281C120.172 639.198 119.945 639.156 119.68 639.156C119.388 639.156 119.133 639.216 118.914 639.336C118.701 639.456 118.523 639.622 118.383 639.836C118.242 640.044 118.138 640.289 118.07 640.57C118.003 640.852 117.969 641.154 117.969 641.477ZM123 641.219L122.195 641.32C122.195 640.768 122.263 640.255 122.398 639.781C122.539 639.307 122.745 638.891 123.016 638.531C123.292 638.172 123.633 637.893 124.039 637.695C124.445 637.492 124.914 637.391 125.445 637.391C125.852 637.391 126.221 637.451 126.555 637.57C126.888 637.685 127.172 637.87 127.406 638.125C127.646 638.375 127.828 638.703 127.953 639.109C128.083 639.516 128.148 640.013 128.148 640.602V646H125.891V640.602C125.891 640.211 125.839 639.914 125.734 639.711C125.635 639.503 125.49 639.359 125.297 639.281C125.109 639.198 124.885 639.156 124.625 639.156C124.354 639.156 124.117 639.211 123.914 639.32C123.711 639.424 123.542 639.57 123.406 639.758C123.271 639.945 123.169 640.164 123.102 640.414C123.034 640.659 123 640.927 123 641.219ZM134.453 644.094V640.328C134.453 640.057 134.409 639.826 134.32 639.633C134.232 639.435 134.094 639.281 133.906 639.172C133.724 639.062 133.487 639.008 133.195 639.008C132.945 639.008 132.729 639.052 132.547 639.141C132.365 639.224 132.224 639.346 132.125 639.508C132.026 639.664 131.977 639.849 131.977 640.062H129.727C129.727 639.703 129.81 639.362 129.977 639.039C130.143 638.716 130.385 638.432 130.703 638.188C131.021 637.938 131.398 637.742 131.836 637.602C132.279 637.461 132.773 637.391 133.32 637.391C133.977 637.391 134.56 637.5 135.07 637.719C135.581 637.938 135.982 638.266 136.273 638.703C136.57 639.141 136.719 639.688 136.719 640.344V643.961C136.719 644.424 136.747 644.805 136.805 645.102C136.862 645.393 136.945 645.648 137.055 645.867V646H134.781C134.672 645.771 134.589 645.484 134.531 645.141C134.479 644.792 134.453 644.443 134.453 644.094ZM134.75 640.852L134.766 642.125H133.508C133.211 642.125 132.953 642.159 132.734 642.227C132.516 642.294 132.336 642.391 132.195 642.516C132.055 642.635 131.951 642.776 131.883 642.938C131.82 643.099 131.789 643.276 131.789 643.469C131.789 643.661 131.833 643.836 131.922 643.992C132.01 644.143 132.138 644.263 132.305 644.352C132.471 644.435 132.667 644.477 132.891 644.477C133.229 644.477 133.523 644.409 133.773 644.273C134.023 644.138 134.216 643.971 134.352 643.773C134.492 643.576 134.565 643.388 134.57 643.211L135.164 644.164C135.081 644.378 134.966 644.599 134.82 644.828C134.68 645.057 134.5 645.273 134.281 645.477C134.062 645.674 133.799 645.839 133.492 645.969C133.185 646.094 132.82 646.156 132.398 646.156C131.862 646.156 131.375 646.049 130.938 645.836C130.505 645.617 130.161 645.318 129.906 644.938C129.656 644.552 129.531 644.115 129.531 643.625C129.531 643.182 129.615 642.789 129.781 642.445C129.948 642.102 130.193 641.812 130.516 641.578C130.844 641.339 131.253 641.159 131.742 641.039C132.232 640.914 132.799 640.852 133.445 640.852H134.75Z" fill="black"/>
</g>
<g filter="url(#filter5_d_84_28883)">
<rect x="245" y="156.136" width="36.7284" height="36.7284" rx="7.34568" fill="#008000"/>
<rect x="286.136" y="156.136" width="36.7284" height="36.7284" rx="7.34568" fill="#008000"/>
<rect x="245" y="115" width="36.7284" height="36.7284" rx="18.3642" fill="#FF0000"/>
<rect x="286.136" y="115" width="36.7284" height="36.7284" rx="7.34568" fill="#008000"/>
<rect x="327.272" y="115" width="36.7284" height="36.7284" rx="7.34568" fill="#008000"/>
<rect x="327.272" y="197.271" width="36.7284" height="36.7284" rx="7.34568" fill="#008000"/>
<rect x="245" y="197.271" width="36.7284" height="36.7284" rx="7.34568" fill="#008000"/>
<rect x="286.136" y="197.271" width="36.7284" height="36.7284" rx="7.34568" fill="#008000"/>
<rect x="245" y="238.407" width="36.7284" height="36.7284" rx="7.34568" fill="#008000"/>
<rect x="286.136" y="238.407" width="36.7284" height="36.7284" rx="7.34568" fill="#008000"/>
</g>
<g filter="url(#filter6_d_84_28883)">
<path d="M35.104 206V180.8H45.364C48.052 180.8 50.404 181.34 52.42 182.42C54.46 183.476 56.044 184.952 57.172 186.848C58.3 188.744 58.864 190.928 58.864 193.4C58.864 195.872 58.3 198.056 57.172 199.952C56.044 201.848 54.46 203.336 52.42 204.416C50.404 205.472 48.052 206 45.364 206H35.104ZM37.768 203.696H45.22C47.452 203.696 49.384 203.264 51.016 202.4C52.672 201.512 53.956 200.3 54.868 198.764C55.78 197.204 56.236 195.416 56.236 193.4C56.236 191.36 55.78 189.572 54.868 188.036C53.956 186.5 52.672 185.3 51.016 184.436C49.384 183.548 47.452 183.104 45.22 183.104H37.768V203.696ZM72.3342 206.18C70.3662 206.18 68.6382 205.772 67.1502 204.956C65.6622 204.116 64.4982 202.976 63.6582 201.536C62.8182 200.072 62.3982 198.404 62.3982 196.532C62.3982 194.66 62.7942 193.004 63.5862 191.564C64.4022 190.124 65.5062 188.996 66.8982 188.18C68.3142 187.34 69.8982 186.92 71.6502 186.92C73.4262 186.92 74.9982 187.328 76.3662 188.144C77.7582 188.936 78.8502 190.064 79.6422 191.528C80.4342 192.968 80.8302 194.636 80.8302 196.532C80.8302 196.652 80.8182 196.784 80.7942 196.928C80.7942 197.048 80.7942 197.18 80.7942 197.324H64.3422V195.416H79.4262L78.4182 196.172C78.4182 194.804 78.1182 193.592 77.5182 192.536C76.9422 191.456 76.1502 190.616 75.1422 190.016C74.1342 189.416 72.9702 189.116 71.6502 189.116C70.3542 189.116 69.1902 189.416 68.1582 190.016C67.1262 190.616 66.3222 191.456 65.7462 192.536C65.1702 193.616 64.8822 194.852 64.8822 196.244V196.64C64.8822 198.08 65.1942 199.352 65.8182 200.456C66.4662 201.536 67.3542 202.388 68.4822 203.012C69.6342 203.612 70.9422 203.912 72.4062 203.912C73.5582 203.912 74.6262 203.708 75.6102 203.3C76.6182 202.892 77.4822 202.268 78.2022 201.428L79.6422 203.084C78.8022 204.092 77.7462 204.86 76.4742 205.388C75.2262 205.916 73.8462 206.18 72.3342 206.18ZM91.1088 206.18C89.5488 206.18 88.0728 205.964 86.6808 205.532C85.2888 205.076 84.1968 204.512 83.4048 203.84L84.5568 201.824C85.3248 202.4 86.3088 202.904 87.5088 203.336C88.7088 203.744 89.9688 203.948 91.2888 203.948C93.0888 203.948 94.3848 203.672 95.1768 203.12C95.9688 202.544 96.3648 201.788 96.3648 200.852C96.3648 200.156 96.1368 199.616 95.6808 199.232C95.2488 198.824 94.6728 198.524 93.9528 198.332C93.2328 198.116 92.4288 197.936 91.5408 197.792C90.6528 197.648 89.7648 197.48 88.8768 197.288C88.0128 197.096 87.2208 196.82 86.5008 196.46C85.7808 196.076 85.1928 195.56 84.7368 194.912C84.3048 194.264 84.0888 193.4 84.0888 192.32C84.0888 191.288 84.3768 190.364 84.9528 189.548C85.5288 188.732 86.3688 188.096 87.4728 187.64C88.6008 187.16 89.9688 186.92 91.5768 186.92C92.8008 186.92 94.0248 187.088 95.2488 187.424C96.4728 187.736 97.4808 188.156 98.2728 188.684L97.1568 190.736C96.3168 190.16 95.4168 189.752 94.4568 189.512C93.4968 189.248 92.5368 189.116 91.5768 189.116C89.8728 189.116 88.6128 189.416 87.7968 190.016C87.0048 190.592 86.6088 191.336 86.6088 192.248C86.6088 192.968 86.8248 193.532 87.2568 193.94C87.7128 194.348 88.3008 194.672 89.0208 194.912C89.7648 195.128 90.5688 195.308 91.4328 195.452C92.3208 195.596 93.1968 195.776 94.0608 195.992C94.9488 196.184 95.7528 196.46 96.4728 196.82C97.2168 197.156 97.8048 197.648 98.2368 198.296C98.6928 198.92 98.9208 199.748 98.9208 200.78C98.9208 201.884 98.6088 202.844 97.9848 203.66C97.3848 204.452 96.4968 205.076 95.3208 205.532C94.1688 205.964 92.7648 206.18 91.1088 206.18ZM111.639 206.18C109.671 206.18 107.943 205.772 106.455 204.956C104.967 204.116 103.803 202.976 102.963 201.536C102.123 200.072 101.703 198.404 101.703 196.532C101.703 194.66 102.099 193.004 102.891 191.564C103.707 190.124 104.811 188.996 106.203 188.18C107.619 187.34 109.203 186.92 110.955 186.92C112.731 186.92 114.303 187.328 115.671 188.144C117.063 188.936 118.155 190.064 118.947 191.528C119.739 192.968 120.135 194.636 120.135 196.532C120.135 196.652 120.123 196.784 120.099 196.928C120.099 197.048 120.099 197.18 120.099 197.324H103.647V195.416H118.731L117.723 196.172C117.723 194.804 117.423 193.592 116.823 192.536C116.247 191.456 115.455 190.616 114.447 190.016C113.439 189.416 112.275 189.116 110.955 189.116C109.659 189.116 108.495 189.416 107.463 190.016C106.431 190.616 105.627 191.456 105.051 192.536C104.475 193.616 104.187 194.852 104.187 196.244V196.64C104.187 198.08 104.499 199.352 105.123 200.456C105.771 201.536 106.659 202.388 107.787 203.012C108.939 203.612 110.247 203.912 111.711 203.912C112.863 203.912 113.931 203.708 114.915 203.3C115.923 202.892 116.787 202.268 117.507 201.428L118.947 203.084C118.107 204.092 117.051 204.86 115.779 205.388C114.531 205.916 113.151 206.18 111.639 206.18ZM134.985 186.92C136.521 186.92 137.865 187.22 139.017 187.82C140.193 188.396 141.105 189.284 141.753 190.484C142.425 191.684 142.761 193.196 142.761 195.02V206H140.205V195.272C140.205 193.28 139.701 191.78 138.693 190.772C137.709 189.74 136.317 189.224 134.517 189.224C133.173 189.224 131.997 189.5 130.989 190.052C130.005 190.58 129.237 191.36 128.685 192.392C128.157 193.4 127.893 194.624 127.893 196.064V206H125.337V187.1H127.785V192.284L127.389 191.312C127.989 189.944 128.949 188.876 130.269 188.108C131.589 187.316 133.161 186.92 134.985 186.92ZM149.666 206V187.1H152.114V192.248L151.862 191.348C152.39 189.908 153.278 188.816 154.526 188.072C155.774 187.304 157.322 186.92 159.17 186.92V189.404C159.074 189.404 158.978 189.404 158.882 189.404C158.786 189.38 158.69 189.368 158.594 189.368C156.602 189.368 155.042 189.98 153.914 191.204C152.786 192.404 152.222 194.12 152.222 196.352V206H149.666ZM171.362 206.18C169.538 206.18 167.894 205.772 166.43 204.956C164.99 204.116 163.85 202.976 163.01 201.536C162.17 200.072 161.75 198.404 161.75 196.532C161.75 194.636 162.17 192.968 163.01 191.528C163.85 190.088 164.99 188.96 166.43 188.144C167.87 187.328 169.514 186.92 171.362 186.92C173.234 186.92 174.89 187.328 176.33 188.144C177.794 188.96 178.934 190.088 179.75 191.528C180.59 192.968 181.01 194.636 181.01 196.532C181.01 198.404 180.59 200.072 179.75 201.536C178.934 202.976 177.794 204.116 176.33 204.956C174.866 205.772 173.21 206.18 171.362 206.18ZM171.362 203.912C172.73 203.912 173.942 203.612 174.998 203.012C176.054 202.388 176.882 201.524 177.482 200.42C178.106 199.292 178.418 197.996 178.418 196.532C178.418 195.044 178.106 193.748 177.482 192.644C176.882 191.54 176.054 190.688 174.998 190.088C173.942 189.464 172.742 189.152 171.398 189.152C170.054 189.152 168.854 189.464 167.798 190.088C166.742 190.688 165.902 191.54 165.278 192.644C164.654 193.748 164.342 195.044 164.342 196.532C164.342 197.996 164.654 199.292 165.278 200.42C165.902 201.524 166.742 202.388 167.798 203.012C168.854 203.612 170.042 203.912 171.362 203.912ZM186.228 206V179.288H188.784V206H186.228ZM207.74 206V201.824L207.632 201.14V194.156C207.632 192.548 207.176 191.312 206.264 190.448C205.376 189.584 204.044 189.152 202.268 189.152C201.044 189.152 199.88 189.356 198.776 189.764C197.672 190.172 196.736 190.712 195.968 191.384L194.816 189.476C195.776 188.66 196.928 188.036 198.272 187.604C199.616 187.148 201.032 186.92 202.52 186.92C204.968 186.92 206.852 187.532 208.172 188.756C209.516 189.956 210.188 191.792 210.188 194.264V206H207.74ZM201.224 206.18C199.808 206.18 198.572 205.952 197.516 205.496C196.484 205.016 195.692 204.368 195.14 203.552C194.588 202.712 194.312 201.752 194.312 200.672C194.312 199.688 194.54 198.8 194.996 198.008C195.476 197.192 196.244 196.544 197.3 196.064C198.38 195.56 199.82 195.308 201.62 195.308H208.136V197.216H201.692C199.868 197.216 198.596 197.54 197.876 198.188C197.18 198.836 196.832 199.64 196.832 200.6C196.832 201.68 197.252 202.544 198.092 203.192C198.932 203.84 200.108 204.164 201.62 204.164C203.06 204.164 204.296 203.84 205.328 203.192C206.384 202.52 207.152 201.56 207.632 200.312L208.208 202.076C207.728 203.324 206.888 204.32 205.688 205.064C204.512 205.808 203.024 206.18 201.224 206.18Z" fill="black"/>
</g>
<defs>
<filter id="filter0_d_84_28883" x="14" y="310" width="365" height="502" filterUnits="userSpaceOnUse" color-interpolation-filters="sRGB">
<feFlood flood-opacity="0" result="BackgroundImageFix"/>
<feColorMatrix in="SourceAlpha" type="matrix" values="0 0 0 0 0 0 0 0 0 0 0 0 0 0 0 0 0 0 127 0" result="hardAlpha"/>
<feOffset dy="16"/>
<feGaussianBlur stdDeviation="8"/>
<feComposite in2="hardAlpha" operator="out"/>
<feColorMatrix type="matrix" values="0 0 0 0 0 0 0 0 0 0 0 0 0 0 0 0 0 0 0.25 0"/>
<feBlend mode="normal" in2="BackgroundImageFix" result="effect1_dropShadow_84_28883"/>
<feBlend mode="normal" in="SourceGraphic" in2="effect1_dropShadow_84_28883" result="shape"/>
</filter>
<filter id="filter1_d_84_28883" x="58" y="405" width="277" height="66" filterUnits="userSpaceOnUse" color-interpolation-filters="sRGB">
<feFlood flood-opacity="0" result="BackgroundImageFix"/>
<feColorMatrix in="SourceAlpha" type="matrix" values="0 0 0 0 0 0 0 0 0 0 0 0 0 0 0 0 0 0 127 0" result="hardAlpha"/>
<feOffset dy="8"/>
<feGaussianBlur stdDeviation="4"/>
<feComposite in2="hardAlpha" operator="out"/>
<feColorMatrix type="matrix" values="0 0 0 0 0 0 0 0 0 0 0 0 0 0 0 0 0 0 0.25 0"/>
<feBlend mode="normal" in2="BackgroundImageFix" result="effect1_dropShadow_84_28883"/>
<feBlend mode="normal" in="SourceGraphic" in2="effect1_dropShadow_84_28883" result="shape"/>
</filter>
<filter id="filter2_d_84_28883" x="58" y="489" width="277" height="66" filterUnits="userSpaceOnUse" color-interpolation-filters="sRGB">
<feFlood flood-opacity="0" result="BackgroundImageFix"/>
<feColorMatrix in="SourceAlpha" type="matrix" values="0 0 0 0 0 0 0 0 0 0 0 0 0 0 0 0 0 0 127 0" result="hardAlpha"/>
<feOffset dy="8"/>
<feGaussianBlur stdDeviation="4"/>
<feComposite in2="hardAlpha" operator="out"/>
<feColorMatrix type="matrix" values="0 0 0 0 0 0 0 0 0 0 0 0 0 0 0 0 0 0 0.25 0"/>
<feBlend mode="normal" in2="BackgroundImageFix" result="effect1_dropShadow_84_28883"/>
<feBlend mode="normal" in="SourceGraphic" in2="effect1_dropShadow_84_28883" result="shape"/>
</filter>
<filter id="filter3_d_84_28883" x="58" y="572" width="277" height="66" filterUnits="userSpaceOnUse" color-interpolation-filters="sRGB">
<feFlood flood-opacity="0" result="BackgroundImageFix"/>
<feColorMatrix in="SourceAlpha" type="matrix" values="0 0 0 0 0 0 0 0 0 0 0 0 0 0 0 0 0 0 127 0" result="hardAlpha"/>
<feOffset dy="8"/>
<feGaussianBlur stdDeviation="4"/>
<feComposite in2="hardAlpha" operator="out"/>
<feColorMatrix type="matrix" values="0 0 0 0 0 0 0 0 0 0 0 0 0 0 0 0 0 0 0.25 0"/>
<feBlend mode="normal" in2="BackgroundImageFix" result="effect1_dropShadow_84_28883"/>
<feBlend mode="normal" in="SourceGraphic" in2="effect1_dropShadow_84_28883" result="shape"/>
</filter>
<filter id="filter4_d_84_28883" x="58" y="653" width="277" height="66" filterUnits="userSpaceOnUse" color-interpolation-filters="sRGB">
<feFlood flood-opacity="0" result="BackgroundImageFix"/>
<feColorMatrix in="SourceAlpha" type="matrix" values="0 0 0 0 0 0 0 0 0 0 0 0 0 0 0 0 0 0 127 0" result="hardAlpha"/>
<feOffset dy="8"/>
<feGaussianBlur stdDeviation="4"/>
<feComposite in2="hardAlpha" operator="out"/>
<feColorMatrix type="matrix" values="0 0 0 0 0 0 0 0 0 0 0 0 0 0 0 0 0 0 0.25 0"/>
<feBlend mode="normal" in2="BackgroundImageFix" result="effect1_dropShadow_84_28883"/>
<feBlend mode="normal" in="SourceGraphic" in2="effect1_dropShadow_84_28883" result="shape"/>
</filter>
<filter id="filter5_d_84_28883" x="229" y="115" width="151" height="192.136" filterUnits="userSpaceOnUse" color-interpolation-filters="sRGB">
<feFlood flood-opacity="0" result="BackgroundImageFix"/>
<feColorMatrix in="SourceAlpha" type="matrix" values="0 0 0 0 0 0 0 0 0 0 0 0 0 0 0 0 0 0 127 0" result="hardAlpha"/>
<feOffset dy="16"/>
<feGaussianBlur stdDeviation="8"/>
<feComposite in2="hardAlpha" operator="out"/>
<feColorMatrix type="matrix" values="0 0 0 0 0 0 0 0 0 0 0 0 0 0 0 0 0 0 0.25 0"/>
<feBlend mode="normal" in2="BackgroundImageFix" result="effect1_dropShadow_84_28883"/>
<feBlend mode="normal" in="SourceGraphic" in2="effect1_dropShadow_84_28883" result="shape"/>
</filter>
<filter id="filter6_d_84_28883" x="25.104" y="179.288" width="195.084" height="46.8918" filterUnits="userSpaceOnUse" color-interpolation-filters="sRGB">
<feFlood flood-opacity="0" result="BackgroundImageFix"/>
<feColorMatrix in="SourceAlpha" type="matrix" values="0 0 0 0 0 0 0 0 0 0 0 0 0 0 0 0 0 0 127 0" result="hardAlpha"/>
<feOffset dy="10"/>
<feGaussianBlur stdDeviation="5"/>
<feComposite in2="hardAlpha" operator="out"/>
<feColorMatrix type="matrix" values="0 0 0 0 0 0 0 0 0 0 0 0 0 0 0 0 0 0 0.25 0"/>
<feBlend mode="normal" in2="BackgroundImageFix" result="effect1_dropShadow_84_28883"/>
<feBlend mode="normal" in="SourceGraphic" in2="effect1_dropShadow_84_28883" result="shape"/>
</filter>
</defs>
</svg>
